<mxfile host="app.diagrams.net" modified="2022-06-19T11:04:53.491Z" agent="5.0 (Windows NT 10.0; Win64; x64) AppleWebKit/537.36 (KHTML, like Gecko) Chrome/97.0.4692.71 Safari/537.36" etag="uHh0agJI6RLZWtKx8VGi" version="19.0.3" type="github">
  <diagram id="fzLPWwGyjgbkaBwaOcnc" name="数据分片和路由">
    <mxGraphModel dx="2249" dy="762" grid="1" gridSize="10" guides="1" tooltips="1" connect="1" arrows="1" fold="1" page="1" pageScale="1" pageWidth="827" pageHeight="1169" math="0" shadow="0">
      <root>
        <mxCell id="0" />
        <mxCell id="1" parent="0" />
        <mxCell id="3EOLm3rXJEQRXJznnK24-1" value="" style="rounded=0;whiteSpace=wrap;html=1;fillColor=#dae8fc;strokeColor=#6c8ebf;" vertex="1" parent="1">
          <mxGeometry x="40" y="40" width="80" height="240" as="geometry" />
        </mxCell>
        <mxCell id="3EOLm3rXJEQRXJznnK24-3" value="" style="rounded=1;whiteSpace=wrap;html=1;fillColor=#f5f5f5;fontColor=#333333;strokeColor=#666666;" vertex="1" parent="1">
          <mxGeometry x="200" y="30" width="80" height="270" as="geometry" />
        </mxCell>
        <mxCell id="3EOLm3rXJEQRXJznnK24-70" style="edgeStyle=none;rounded=0;orthogonalLoop=1;jettySize=auto;html=1;exitX=1;exitY=0.5;exitDx=0;exitDy=0;exitPerimeter=0;entryX=0;entryY=0.5;entryDx=0;entryDy=0;fontSize=14;startArrow=none;startFill=0;endArrow=classic;endFill=1;" edge="1" parent="1" source="3EOLm3rXJEQRXJznnK24-4">
          <mxGeometry relative="1" as="geometry">
            <mxPoint x="360" y="70" as="targetPoint" />
          </mxGeometry>
        </mxCell>
        <mxCell id="3EOLm3rXJEQRXJznnK24-4" value="" style="shape=cylinder3;whiteSpace=wrap;html=1;boundedLbl=1;backgroundOutline=1;size=15;fillColor=#ffe6cc;strokeColor=#d79b00;" vertex="1" parent="1">
          <mxGeometry x="210" y="40" width="60" height="50" as="geometry" />
        </mxCell>
        <mxCell id="3EOLm3rXJEQRXJznnK24-8" value="" style="rounded=0;whiteSpace=wrap;html=1;fillColor=#dae8fc;strokeColor=#6c8ebf;" vertex="1" parent="1">
          <mxGeometry x="40" y="40" width="80" height="20" as="geometry" />
        </mxCell>
        <mxCell id="3EOLm3rXJEQRXJznnK24-9" value="" style="rounded=0;whiteSpace=wrap;html=1;fillColor=#dae8fc;strokeColor=#6c8ebf;" vertex="1" parent="1">
          <mxGeometry x="40" y="60" width="80" height="20" as="geometry" />
        </mxCell>
        <mxCell id="3EOLm3rXJEQRXJznnK24-42" style="edgeStyle=orthogonalEdgeStyle;rounded=0;orthogonalLoop=1;jettySize=auto;html=1;exitX=0;exitY=0.5;exitDx=0;exitDy=0;endArrow=none;endFill=0;startArrow=classic;startFill=1;" edge="1" parent="1">
          <mxGeometry relative="1" as="geometry">
            <mxPoint x="-40" y="150" as="targetPoint" />
            <mxPoint x="39" y="150" as="sourcePoint" />
          </mxGeometry>
        </mxCell>
        <mxCell id="3EOLm3rXJEQRXJznnK24-48" style="rounded=0;orthogonalLoop=1;jettySize=auto;html=1;exitX=1;exitY=0.5;exitDx=0;exitDy=0;entryX=0;entryY=0.5;entryDx=0;entryDy=0;entryPerimeter=0;fontSize=14;startArrow=none;startFill=0;endArrow=classic;endFill=1;" edge="1" parent="1" source="3EOLm3rXJEQRXJznnK24-10" target="3EOLm3rXJEQRXJznnK24-20">
          <mxGeometry relative="1" as="geometry" />
        </mxCell>
        <mxCell id="3EOLm3rXJEQRXJznnK24-10" value="" style="rounded=0;whiteSpace=wrap;html=1;fillColor=#dae8fc;strokeColor=#6c8ebf;" vertex="1" parent="1">
          <mxGeometry x="40" y="140" width="80" height="20" as="geometry" />
        </mxCell>
        <mxCell id="3EOLm3rXJEQRXJznnK24-11" value="" style="rounded=0;whiteSpace=wrap;html=1;fillColor=#dae8fc;strokeColor=#6c8ebf;" vertex="1" parent="1">
          <mxGeometry x="40" y="160" width="80" height="20" as="geometry" />
        </mxCell>
        <mxCell id="3EOLm3rXJEQRXJznnK24-12" value="" style="rounded=0;whiteSpace=wrap;html=1;fillColor=#dae8fc;strokeColor=#6c8ebf;" vertex="1" parent="1">
          <mxGeometry x="40" y="180" width="80" height="20" as="geometry" />
        </mxCell>
        <mxCell id="3EOLm3rXJEQRXJznnK24-53" style="edgeStyle=none;rounded=0;orthogonalLoop=1;jettySize=auto;html=1;exitX=1;exitY=0.5;exitDx=0;exitDy=0;entryX=0;entryY=0.5;entryDx=0;entryDy=0;entryPerimeter=0;fontSize=14;startArrow=none;startFill=0;endArrow=classic;endFill=1;" edge="1" parent="1" source="3EOLm3rXJEQRXJznnK24-13" target="3EOLm3rXJEQRXJznnK24-22">
          <mxGeometry relative="1" as="geometry" />
        </mxCell>
        <mxCell id="3EOLm3rXJEQRXJznnK24-13" value="" style="rounded=0;whiteSpace=wrap;html=1;fillColor=#dae8fc;strokeColor=#6c8ebf;" vertex="1" parent="1">
          <mxGeometry x="40" y="200" width="80" height="20" as="geometry" />
        </mxCell>
        <mxCell id="3EOLm3rXJEQRXJznnK24-14" value="" style="rounded=0;whiteSpace=wrap;html=1;fillColor=#dae8fc;strokeColor=#6c8ebf;" vertex="1" parent="1">
          <mxGeometry x="40" y="220" width="80" height="20" as="geometry" />
        </mxCell>
        <mxCell id="3EOLm3rXJEQRXJznnK24-15" value="" style="rounded=0;whiteSpace=wrap;html=1;fillColor=#dae8fc;strokeColor=#6c8ebf;" vertex="1" parent="1">
          <mxGeometry x="40" y="240" width="80" height="20" as="geometry" />
        </mxCell>
        <mxCell id="3EOLm3rXJEQRXJznnK24-16" value="" style="rounded=0;whiteSpace=wrap;html=1;fillColor=#dae8fc;strokeColor=#6c8ebf;" vertex="1" parent="1">
          <mxGeometry x="40" y="260" width="80" height="20" as="geometry" />
        </mxCell>
        <mxCell id="3EOLm3rXJEQRXJznnK24-18" value="" style="rounded=0;whiteSpace=wrap;html=1;fillColor=#dae8fc;strokeColor=#6c8ebf;" vertex="1" parent="1">
          <mxGeometry x="40" y="80" width="80" height="20" as="geometry" />
        </mxCell>
        <mxCell id="3EOLm3rXJEQRXJznnK24-19" value="" style="rounded=0;whiteSpace=wrap;html=1;fillColor=#dae8fc;strokeColor=#6c8ebf;" vertex="1" parent="1">
          <mxGeometry x="40" y="100" width="80" height="20" as="geometry" />
        </mxCell>
        <mxCell id="3EOLm3rXJEQRXJznnK24-51" style="edgeStyle=none;rounded=0;orthogonalLoop=1;jettySize=auto;html=1;exitX=1;exitY=0.5;exitDx=0;exitDy=0;exitPerimeter=0;fontSize=14;startArrow=none;startFill=0;endArrow=classic;endFill=1;entryX=0.013;entryY=0.379;entryDx=0;entryDy=0;entryPerimeter=0;" edge="1" parent="1" source="3EOLm3rXJEQRXJznnK24-20">
          <mxGeometry relative="1" as="geometry">
            <mxPoint x="361.03999999999996" y="130.96000000000004" as="targetPoint" />
          </mxGeometry>
        </mxCell>
        <mxCell id="3EOLm3rXJEQRXJznnK24-20" value="" style="shape=cylinder3;whiteSpace=wrap;html=1;boundedLbl=1;backgroundOutline=1;size=15;fillColor=#ffe6cc;strokeColor=#d79b00;" vertex="1" parent="1">
          <mxGeometry x="210" y="103" width="60" height="50" as="geometry" />
        </mxCell>
        <mxCell id="3EOLm3rXJEQRXJznnK24-71" style="edgeStyle=none;rounded=0;orthogonalLoop=1;jettySize=auto;html=1;exitX=1;exitY=0;exitDx=0;exitDy=30;exitPerimeter=0;entryX=0;entryY=0.5;entryDx=0;entryDy=0;fontSize=14;startArrow=none;startFill=0;endArrow=classic;endFill=1;" edge="1" parent="1" source="3EOLm3rXJEQRXJznnK24-21">
          <mxGeometry relative="1" as="geometry">
            <mxPoint x="360" y="190" as="targetPoint" />
          </mxGeometry>
        </mxCell>
        <mxCell id="3EOLm3rXJEQRXJznnK24-21" value="" style="shape=cylinder3;whiteSpace=wrap;html=1;boundedLbl=1;backgroundOutline=1;size=15;fillColor=#ffe6cc;strokeColor=#d79b00;" vertex="1" parent="1">
          <mxGeometry x="210" y="173" width="60" height="50" as="geometry" />
        </mxCell>
        <mxCell id="3EOLm3rXJEQRXJznnK24-72" style="edgeStyle=none;rounded=0;orthogonalLoop=1;jettySize=auto;html=1;exitX=1;exitY=0.5;exitDx=0;exitDy=0;exitPerimeter=0;entryX=0;entryY=0.5;entryDx=0;entryDy=0;fontSize=14;startArrow=none;startFill=0;endArrow=classic;endFill=1;" edge="1" parent="1" source="3EOLm3rXJEQRXJznnK24-22">
          <mxGeometry relative="1" as="geometry">
            <mxPoint x="360" y="250" as="targetPoint" />
          </mxGeometry>
        </mxCell>
        <mxCell id="3EOLm3rXJEQRXJznnK24-22" value="" style="shape=cylinder3;whiteSpace=wrap;html=1;boundedLbl=1;backgroundOutline=1;size=15;fillColor=#ffe6cc;strokeColor=#d79b00;" vertex="1" parent="1">
          <mxGeometry x="210" y="242" width="60" height="50" as="geometry" />
        </mxCell>
        <mxCell id="3EOLm3rXJEQRXJznnK24-52" style="edgeStyle=none;rounded=0;orthogonalLoop=1;jettySize=auto;html=1;exitX=1;exitY=0.5;exitDx=0;exitDy=0;entryX=0;entryY=0;entryDx=10;entryDy=30;entryPerimeter=0;fontSize=14;startArrow=none;startFill=0;endArrow=classic;endFill=1;" edge="1" parent="1" source="3EOLm3rXJEQRXJznnK24-87" target="3EOLm3rXJEQRXJznnK24-35">
          <mxGeometry relative="1" as="geometry">
            <mxPoint x="440" y="70" as="sourcePoint" />
          </mxGeometry>
        </mxCell>
        <mxCell id="3EOLm3rXJEQRXJznnK24-35" value="" style="shape=cube;whiteSpace=wrap;html=1;boundedLbl=1;backgroundOutline=1;darkOpacity=0.05;darkOpacity2=0.1;fillColor=#f8cecc;strokeColor=#b85450;" vertex="1" parent="1">
          <mxGeometry x="560" y="40" width="80" height="40" as="geometry" />
        </mxCell>
        <mxCell id="3EOLm3rXJEQRXJznnK24-39" value="" style="shape=cube;whiteSpace=wrap;html=1;boundedLbl=1;backgroundOutline=1;darkOpacity=0.05;darkOpacity2=0.1;fillColor=#f8cecc;strokeColor=#b85450;" vertex="1" parent="1">
          <mxGeometry x="560" y="109" width="80" height="40" as="geometry" />
        </mxCell>
        <mxCell id="3EOLm3rXJEQRXJznnK24-40" value="" style="shape=cube;whiteSpace=wrap;html=1;boundedLbl=1;backgroundOutline=1;darkOpacity=0.05;darkOpacity2=0.1;fillColor=#f8cecc;strokeColor=#b85450;" vertex="1" parent="1">
          <mxGeometry x="560" y="172" width="80" height="40" as="geometry" />
        </mxCell>
        <mxCell id="3EOLm3rXJEQRXJznnK24-43" value="Get(key)" style="text;html=1;align=center;verticalAlign=middle;resizable=0;points=[];autosize=1;strokeColor=none;fillColor=none;" vertex="1" parent="1">
          <mxGeometry x="-30" y="129" width="60" height="20" as="geometry" />
        </mxCell>
        <mxCell id="3EOLm3rXJEQRXJznnK24-44" value="" style="shape=curlyBracket;whiteSpace=wrap;html=1;rounded=1;direction=north;" vertex="1" parent="1">
          <mxGeometry x="70" y="311" width="170" height="20" as="geometry" />
        </mxCell>
        <mxCell id="3EOLm3rXJEQRXJznnK24-45" value="" style="shape=curlyBracket;whiteSpace=wrap;html=1;rounded=1;direction=north;" vertex="1" parent="1">
          <mxGeometry x="250" y="311" width="350" height="20" as="geometry" />
        </mxCell>
        <mxCell id="3EOLm3rXJEQRXJznnK24-46" value="&lt;b&gt;&lt;font style=&quot;font-size: 14px;&quot;&gt;key-partition映射&lt;/font&gt;&lt;/b&gt;" style="text;html=1;strokeColor=none;fillColor=none;align=center;verticalAlign=middle;whiteSpace=wrap;rounded=0;" vertex="1" parent="1">
          <mxGeometry x="85" y="341" width="115" height="30" as="geometry" />
        </mxCell>
        <mxCell id="3EOLm3rXJEQRXJznnK24-47" value="&lt;b&gt;&lt;font style=&quot;font-size: 14px;&quot;&gt;Partition-Machine映射&lt;/font&gt;&lt;/b&gt;" style="text;html=1;strokeColor=none;fillColor=none;align=center;verticalAlign=middle;whiteSpace=wrap;rounded=0;" vertex="1" parent="1">
          <mxGeometry x="320" y="321" width="170" height="50" as="geometry" />
        </mxCell>
        <mxCell id="3EOLm3rXJEQRXJznnK24-67" style="edgeStyle=none;rounded=0;orthogonalLoop=1;jettySize=auto;html=1;entryX=0;entryY=0;entryDx=0;entryDy=20;entryPerimeter=0;fontSize=14;startArrow=none;startFill=0;endArrow=classic;endFill=1;exitX=1;exitY=0.5;exitDx=0;exitDy=0;" edge="1" parent="1" source="3EOLm3rXJEQRXJznnK24-97" target="3EOLm3rXJEQRXJznnK24-39">
          <mxGeometry relative="1" as="geometry">
            <mxPoint x="490" y="129" as="sourcePoint" />
          </mxGeometry>
        </mxCell>
        <mxCell id="3EOLm3rXJEQRXJznnK24-68" style="edgeStyle=none;rounded=0;orthogonalLoop=1;jettySize=auto;html=1;exitX=1;exitY=0.5;exitDx=0;exitDy=0;fontSize=14;startArrow=none;startFill=0;endArrow=classic;endFill=1;" edge="1" parent="1" source="3EOLm3rXJEQRXJznnK24-90" target="3EOLm3rXJEQRXJznnK24-40">
          <mxGeometry relative="1" as="geometry">
            <mxPoint x="440" y="190" as="sourcePoint" />
          </mxGeometry>
        </mxCell>
        <mxCell id="3EOLm3rXJEQRXJznnK24-69" style="edgeStyle=none;rounded=0;orthogonalLoop=1;jettySize=auto;html=1;exitX=1;exitY=0.5;exitDx=0;exitDy=0;fontSize=14;startArrow=none;startFill=0;endArrow=classic;endFill=1;" edge="1" parent="1" source="3EOLm3rXJEQRXJznnK24-93" target="3EOLm3rXJEQRXJznnK24-66">
          <mxGeometry relative="1" as="geometry">
            <mxPoint x="440" y="250" as="sourcePoint" />
          </mxGeometry>
        </mxCell>
        <mxCell id="3EOLm3rXJEQRXJznnK24-66" value="" style="shape=cube;whiteSpace=wrap;html=1;boundedLbl=1;backgroundOutline=1;darkOpacity=0.05;darkOpacity2=0.1;fillColor=#f8cecc;strokeColor=#b85450;" vertex="1" parent="1">
          <mxGeometry x="560" y="231" width="80" height="40" as="geometry" />
        </mxCell>
        <mxCell id="3EOLm3rXJEQRXJznnK24-73" value="" style="rounded=0;whiteSpace=wrap;html=1;fillColor=#dae8fc;strokeColor=#6c8ebf;" vertex="1" parent="1">
          <mxGeometry x="360" y="40" width="120" height="240" as="geometry" />
        </mxCell>
        <mxCell id="3EOLm3rXJEQRXJznnK24-74" value="" style="rounded=0;whiteSpace=wrap;html=1;fillColor=#dae8fc;strokeColor=#6c8ebf;" vertex="1" parent="1">
          <mxGeometry x="360" y="40" width="60" height="20" as="geometry" />
        </mxCell>
        <mxCell id="3EOLm3rXJEQRXJznnK24-75" value="" style="rounded=0;whiteSpace=wrap;html=1;fillColor=#dae8fc;strokeColor=#6c8ebf;" vertex="1" parent="1">
          <mxGeometry x="360" y="60" width="60" height="20" as="geometry" />
        </mxCell>
        <mxCell id="3EOLm3rXJEQRXJznnK24-76" value="" style="rounded=0;whiteSpace=wrap;html=1;fillColor=#dae8fc;strokeColor=#6c8ebf;" vertex="1" parent="1">
          <mxGeometry x="360" y="140" width="60" height="20" as="geometry" />
        </mxCell>
        <mxCell id="3EOLm3rXJEQRXJznnK24-77" value="" style="rounded=0;whiteSpace=wrap;html=1;fillColor=#dae8fc;strokeColor=#6c8ebf;" vertex="1" parent="1">
          <mxGeometry x="360" y="160" width="60" height="20" as="geometry" />
        </mxCell>
        <mxCell id="3EOLm3rXJEQRXJznnK24-78" value="" style="rounded=0;whiteSpace=wrap;html=1;fillColor=#dae8fc;strokeColor=#6c8ebf;" vertex="1" parent="1">
          <mxGeometry x="360" y="180" width="60" height="20" as="geometry" />
        </mxCell>
        <mxCell id="3EOLm3rXJEQRXJznnK24-79" value="" style="rounded=0;whiteSpace=wrap;html=1;fillColor=#dae8fc;strokeColor=#6c8ebf;" vertex="1" parent="1">
          <mxGeometry x="360" y="200" width="60" height="20" as="geometry" />
        </mxCell>
        <mxCell id="3EOLm3rXJEQRXJznnK24-80" value="" style="rounded=0;whiteSpace=wrap;html=1;fillColor=#dae8fc;strokeColor=#6c8ebf;" vertex="1" parent="1">
          <mxGeometry x="360" y="220" width="60" height="20" as="geometry" />
        </mxCell>
        <mxCell id="3EOLm3rXJEQRXJznnK24-81" value="" style="rounded=0;whiteSpace=wrap;html=1;fillColor=#dae8fc;strokeColor=#6c8ebf;" vertex="1" parent="1">
          <mxGeometry x="360" y="240" width="60" height="20" as="geometry" />
        </mxCell>
        <mxCell id="3EOLm3rXJEQRXJznnK24-82" value="" style="rounded=0;whiteSpace=wrap;html=1;fillColor=#dae8fc;strokeColor=#6c8ebf;" vertex="1" parent="1">
          <mxGeometry x="360" y="260" width="60" height="20" as="geometry" />
        </mxCell>
        <mxCell id="3EOLm3rXJEQRXJznnK24-83" value="" style="rounded=0;whiteSpace=wrap;html=1;fillColor=#dae8fc;strokeColor=#6c8ebf;" vertex="1" parent="1">
          <mxGeometry x="360" y="80" width="60" height="20" as="geometry" />
        </mxCell>
        <mxCell id="3EOLm3rXJEQRXJznnK24-84" value="" style="rounded=0;whiteSpace=wrap;html=1;fillColor=#dae8fc;strokeColor=#6c8ebf;" vertex="1" parent="1">
          <mxGeometry x="360" y="100" width="60" height="20" as="geometry" />
        </mxCell>
        <mxCell id="3EOLm3rXJEQRXJznnK24-85" value="" style="rounded=0;whiteSpace=wrap;html=1;fillColor=#dae8fc;strokeColor=#6c8ebf;" vertex="1" parent="1">
          <mxGeometry x="360" y="120" width="60" height="20" as="geometry" />
        </mxCell>
        <mxCell id="3EOLm3rXJEQRXJznnK24-86" value="" style="rounded=0;whiteSpace=wrap;html=1;fillColor=#dae8fc;strokeColor=#6c8ebf;" vertex="1" parent="1">
          <mxGeometry x="420" y="40" width="60" height="20" as="geometry" />
        </mxCell>
        <mxCell id="3EOLm3rXJEQRXJznnK24-87" value="" style="rounded=0;whiteSpace=wrap;html=1;fillColor=#dae8fc;strokeColor=#6c8ebf;" vertex="1" parent="1">
          <mxGeometry x="420" y="60" width="60" height="20" as="geometry" />
        </mxCell>
        <mxCell id="3EOLm3rXJEQRXJznnK24-88" value="" style="rounded=0;whiteSpace=wrap;html=1;fillColor=#dae8fc;strokeColor=#6c8ebf;" vertex="1" parent="1">
          <mxGeometry x="420" y="140" width="60" height="20" as="geometry" />
        </mxCell>
        <mxCell id="3EOLm3rXJEQRXJznnK24-89" value="" style="rounded=0;whiteSpace=wrap;html=1;fillColor=#dae8fc;strokeColor=#6c8ebf;" vertex="1" parent="1">
          <mxGeometry x="420" y="160" width="60" height="20" as="geometry" />
        </mxCell>
        <mxCell id="3EOLm3rXJEQRXJznnK24-90" value="" style="rounded=0;whiteSpace=wrap;html=1;fillColor=#dae8fc;strokeColor=#6c8ebf;" vertex="1" parent="1">
          <mxGeometry x="420" y="180" width="60" height="20" as="geometry" />
        </mxCell>
        <mxCell id="3EOLm3rXJEQRXJznnK24-91" value="" style="rounded=0;whiteSpace=wrap;html=1;fillColor=#dae8fc;strokeColor=#6c8ebf;" vertex="1" parent="1">
          <mxGeometry x="420" y="200" width="60" height="20" as="geometry" />
        </mxCell>
        <mxCell id="3EOLm3rXJEQRXJznnK24-92" value="" style="rounded=0;whiteSpace=wrap;html=1;fillColor=#dae8fc;strokeColor=#6c8ebf;" vertex="1" parent="1">
          <mxGeometry x="420" y="220" width="60" height="20" as="geometry" />
        </mxCell>
        <mxCell id="3EOLm3rXJEQRXJznnK24-93" value="" style="rounded=0;whiteSpace=wrap;html=1;fillColor=#dae8fc;strokeColor=#6c8ebf;" vertex="1" parent="1">
          <mxGeometry x="420" y="240" width="60" height="20" as="geometry" />
        </mxCell>
        <mxCell id="3EOLm3rXJEQRXJznnK24-94" value="" style="rounded=0;whiteSpace=wrap;html=1;fillColor=#dae8fc;strokeColor=#6c8ebf;" vertex="1" parent="1">
          <mxGeometry x="420" y="260" width="60" height="20" as="geometry" />
        </mxCell>
        <mxCell id="3EOLm3rXJEQRXJznnK24-95" value="" style="rounded=0;whiteSpace=wrap;html=1;fillColor=#dae8fc;strokeColor=#6c8ebf;" vertex="1" parent="1">
          <mxGeometry x="420" y="80" width="60" height="20" as="geometry" />
        </mxCell>
        <mxCell id="3EOLm3rXJEQRXJznnK24-96" value="" style="rounded=0;whiteSpace=wrap;html=1;fillColor=#dae8fc;strokeColor=#6c8ebf;" vertex="1" parent="1">
          <mxGeometry x="420" y="100" width="60" height="20" as="geometry" />
        </mxCell>
        <mxCell id="3EOLm3rXJEQRXJznnK24-97" value="" style="rounded=0;whiteSpace=wrap;html=1;fillColor=#dae8fc;strokeColor=#6c8ebf;" vertex="1" parent="1">
          <mxGeometry x="420" y="120" width="60" height="20" as="geometry" />
        </mxCell>
        <mxCell id="3EOLm3rXJEQRXJznnK24-98" value="&lt;font style=&quot;font-size: 12px;&quot;&gt;key&lt;/font&gt;" style="text;html=1;strokeColor=none;fillColor=none;align=center;verticalAlign=middle;whiteSpace=wrap;rounded=0;fontSize=14;" vertex="1" parent="1">
          <mxGeometry x="360" y="20" width="60" height="20" as="geometry" />
        </mxCell>
        <mxCell id="3EOLm3rXJEQRXJznnK24-99" value="&lt;font style=&quot;font-size: 12px;&quot;&gt;Machine&lt;/font&gt;" style="text;html=1;strokeColor=none;fillColor=none;align=center;verticalAlign=middle;whiteSpace=wrap;rounded=0;fontSize=14;" vertex="1" parent="1">
          <mxGeometry x="420" y="20" width="60" height="20" as="geometry" />
        </mxCell>
      </root>
    </mxGraphModel>
  </diagram>
</mxfile>
